<svg version="1" xmlns="http://www.w3.org/2000/svg" width="436" height="436" viewBox="0 0 327.000000 327.000000"><path d="M110.8 146.8c-.3 38.9-.5 43-2.1 45.5-4 6.1-11.6 8.2-18.1 4.8l-3.9-2-5.8 4.6c-3.3 2.5-5.9 4.9-5.9 5.4 0 .4 2 2.1 4.5 3.7 11.5 7.6 26.7 6.6 37.3-2.3 1.7-1.4 4.5-5.3 6.1-8.7l3.1-6.1V104h-14.9l-.3 42.8zM175.5 158.1c-12.1 29.7-22.1 54.4-22.3 54.9-.2.6 3.1 1 8 1h8.4l1.4-4.3 1.5-4.2 25.2-.3 25.1-.2 1.4 4.2 1.5 4.3 8.1.3c4.5.2 8.2-.1 8.2-.6 0-.9-42.3-105.2-43.7-107.6-.6-1-7.9 15.9-22.8 52.5zm32.3 8.8c5.1 12.9 9 23.6 8.8 23.8-.2.2-8.8.2-19.2.1l-19-.3 9.5-24.3c5.2-13.3 9.7-23.9 10.1-23.5.4.4 4.8 11.3 9.8 24.2z"/></svg>